<?xml version="1.0" standalone="no"?>
<!DOCTYPE svg PUBLIC "-//W3C//DTD SVG 1.1//EN" "http://www.w3.org/Graphics/SVG/1.1/DTD/svg11.dtd" >
<svg xmlns="http://www.w3.org/2000/svg">
<metadata>
Created by FontForge 20120731 at Wed Aug 12 14:50:20 2015
 By Ads
</metadata>
<defs>
<font id="iconfont" horiz-adv-x="1024" >
  <font-face 
    font-family="iconfont"
    font-weight="500"
    font-stretch="normal"
    units-per-em="1024"
    panose-1="2 0 6 3 0 0 0 0 0 0"
    ascent="812"
    descent="-212"
    x-height="792"
    bbox="0 -212 4304 812"
    underline-thickness="50"
    underline-position="-100"
    unicode-range="U+0078-E614"
  />
<missing-glyph horiz-adv-x="374" 
d="M34 0v682h272v-682h-272zM68 34h204v614h-204v-614z" />
    <glyph glyph-name=".notdef" horiz-adv-x="374" 
d="M34 0v682h272v-682h-272zM68 34h204v614h-204v-614z" />
    <glyph glyph-name=".null" horiz-adv-x="0" 
 />
    <glyph glyph-name="nonmarkingreturn" horiz-adv-x="341" 
 />
    <glyph glyph-name="x" unicode="x" horiz-adv-x="1001" 
d="M281 543q-27 -1 -53 -1h-83q-18 0 -36.5 -6t-32.5 -18.5t-23 -32t-9 -45.5v-76h912v41q0 16 -0.5 30t-0.5 18q0 13 -5 29t-17 29.5t-31.5 22.5t-49.5 9h-133v-97h-438v97zM955 310v-52q0 -23 0.5 -52t0.5 -58t-10.5 -47.5t-26 -30t-33 -16t-31.5 -4.5q-14 -1 -29.5 -0.5
t-29.5 0.5h-32l-45 128h-439l-44 -128h-29h-34q-20 0 -45 1q-25 0 -41 9.5t-25.5 23t-13.5 29.5t-4 30v167h911zM163 247q-12 0 -21 -8.5t-9 -21.5t9 -21.5t21 -8.5q13 0 22 8.5t9 21.5t-9 21.5t-22 8.5zM316 123q-8 -26 -14 -48q-5 -19 -10.5 -37t-7.5 -25t-3 -15t1 -14.5
t9.5 -10.5t21.5 -4h37h67h81h80h64h36q23 0 34 12t2 38q-5 13 -9.5 30.5t-9.5 34.5q-5 19 -11 39h-368zM336 498v228q0 11 2.5 23t10 21.5t20.5 15.5t34 6h188q31 0 51.5 -14.5t20.5 -52.5v-227h-327z" />
    <glyph glyph-name="uniE600" unicode="&#xe600;" 
d="M829 688l-7 10h-610l-7 -9q-55 -70 -86 -133t-36.5 -109.5t-1.5 -76.5t16 -55q10 -20 25 -37t33 -28.5t38.5 -18t41.5 -6.5h5q86 4 145 65q10 -11 21.5 -20.5t28 -19.5t38 -15.5t45.5 -5.5q17 0 33 3t29 8t24 11t20.5 14t16.5 14.5t13 13.5q31 -26 71 -46t82 -20
q61 0 104 50q25 30 31.5 72t-4 88t-25 86.5t-36.5 80.5t-31.5 56.5t-16.5 27.5zM875 308q-10 -11 -20.5 -18.5t-22.5 -11t-26 -3.5q-27 0 -59 15.5t-48.5 28t-28.5 24.5v163v1q0 10 -7 17t-17 7q-5 0 -9.5 -1.5t-7.5 -5t-5 -8t-2 -9.5v-177q-39 -53 -104 -53q-22 0 -42 6.5
t-33 17.5t-20 19t-12 15v172q0 10 -7 17t-17 7q-7 0 -12.5 -3t-8.5 -8.5t-3 -12.5v-171q-4 -5 -8.5 -10t-13 -12.5t-18.5 -14t-22.5 -12.5t-28.5 -9.5t-34 -4.5h-3q-26 0 -53 16t-42 47q-9 20 -12 44.5t2 63t32 92.5t73 115h561q17 -27 34 -59t34 -74t26 -79t6 -73t-21 -58z
M831.5 198q-6.5 0 -12 -3t-9 -8.5t-3.5 -12.5v0v-174q0 -9 -3.5 -18t-10 -15.5t-15.5 -10.5t-19 -4h-207h-288q-20 0 -34 14t-14 34v174q0 4 -1.5 7.5t-3.5 6.5t-5 5.5t-6.5 3.5t-7.5 1t-8 -1t-6.5 -3.5t-5 -5.5t-3.5 -6.5t-1 -7.5v-178q0 -25 12 -46.5t33 -33.5t46 -12h505
q38 0 64.5 27t26.5 65v178q0 7 -3 12.5t-8.5 8.5t-12 3z" />
    <glyph glyph-name="uniE601" unicode="&#xe601;" 
d="M513 746q-73 0 -141 -22.5t-123 -64t-96.5 -96.5t-64 -123t-22.5 -141q0 -91 35.5 -173.5t95 -142.5t142.5 -95.5t174 -35.5t173.5 35.5t142.5 95.5t95.5 142.5t35.5 173.5t-35.5 174t-95.5 142.5t-142.5 95t-173.5 35.5zM698 271l1 1q9 -2 -3 -18q-17 -21 -73 -56
q-6 -4 -7.5 -21t-1 -39t-1 -43.5t-10.5 -36.5t-27 -16q-10 7 -26 33t-28 54t-13 39q0 8 12 33q19 38 19 62q0 110 -156 93q-20 -7 -34 5t-19.5 34t-7.5 35t-2 20q0 3 8 8.5t37.5 13t73.5 8.5q3 0 7.5 -6.5t12 -14t24.5 -14t44.5 -6.5t73.5 9q28 6 31 27q0 2 0.5 4.5t1 4.5
t0.5 3.5t0.5 4t0.5 4.5q4 -6 9.5 -9.5t12.5 -5.5q3 -3 9.5 -4.5t12 -2.5t12 -9t9.5 -23q1 0 1 -2q2 -9 7.5 -14t28.5 -14q-1 -1 -9.5 -4t-10.5 -5q-22 -23 -30.5 -32.5t-15.5 -22t-7 -22.5q0 -12 6 -24t11.5 -17.5t15.5 -13.5zM641 544q1 32 -5.5 52t-25.5 34q-24 17 -54 3
q-18 -10 -33 -12t-25 6q-16 16 -20 25.5t3 12t19.5 3t29.5 -1.5q6 0 9 -0.5t8.5 -0.5t9 -0.5t8.5 -0.5h9q4 0 8.5 0.5t8.5 1t7 1.5q5 1 10 3q68 -17 126 -58q-30 4 -48.5 -2.5t-24 -16t-11 -26t-9.5 -23.5zM513 -84q-104 0 -192.5 51.5t-139.5 139.5t-51 192
q0 132 79.5 234.5t203.5 135.5v-2v-2q-3 -30 13 -54.5t41 -38.5q23 -12 50.5 -12.5t56.5 12.5q2 -9 2.5 -10.5t1 -6.5t0 -7.5t-1.5 -14t-2 -25.5q-8 -1 -19.5 -5.5t-18 -6t-15.5 -0.5t-18 8.5t-19 22.5q-11 16 -43 15q-53 -3 -91 -12t-55.5 -19t-26.5 -23.5t-10 -20t0 -14.5
v-3q0 -23 6 -48t19.5 -51t39.5 -42.5t61 -16.5l17 6q65 11 75 -25l1 -10q0 -6 -3.5 -15t-8.5 -19q-19 -38 -19 -61q0 -18 18 -62.5t49 -85.5t59 -41q17 1 30 3.5t23 8.5t17 10.5t11.5 15.5t7.5 18t5 23t3 25t2.5 30.5t2.5 33.5q28 13 76 62q26 26 25 52q-1 18 -11 32
t-17.5 20t-5 17t21.5 29q3 2 7 6t6.5 6t5.5 5l6 6q3 3 5.5 6.5t4 6.5t3 6.5t1.5 7.5v9q0 4 -1 9q-1 3 -2 8t-1 7t-2 5.5t-4 4.5l-8 5q-5 3 -11.5 6t-16.5 6q-5 18 -15.5 26t-22 12.5t-17.5 11.5q1 3 0 9.5t0 10t4.5 7.5t14 4t27.5 -4q27 -1 51 9q47 -52 72.5 -117.5
t25.5 -138.5q0 -39 -8 -77t-22.5 -72t-35 -65t-46.5 -57t-57 -46.5t-65 -35t-72 -22.5t-77 -8z" />
    <glyph glyph-name="uniE602" unicode="&#xe602;" 
d="M926 25h-145q-13 0 -22.5 9t-9.5 22v372q-1 48 -20 90.5t-51 73t-75.5 48t-91.5 18.5q-98 -1 -167 -67t-71 -163v-322q2 -6 5 -15.5t15.5 -32.5t27 -40t38.5 -29t52 -7q5 16 20 24.5t30 8.5h102q26 0 44.5 -18.5t18.5 -44.5v-19q0 -27 -18.5 -45.5t-44.5 -18.5h-94
q-13 0 -25 5.5t-20.5 14.5t-13.5 21h-2h-4h-6q-3 0 -7 0.5t-7 1.5q-15 6 -30 13t-26.5 15t-22 16.5t-18.5 17t-15 16t-11.5 14t-8 11.5t-4.5 7l-2 3h-5h-145q-13 0 -22.5 9t-9.5 22v324q0 13 9.5 22t22.5 9h104v17q2 199 171 273q69 30 135 30h5h5q6 0 17 -0.5t42.5 -6.5
t60.5 -16.5t64 -33.5t60.5 -53.5t43 -80.5t18.5 -112v1v-18h104q7 0 12.5 -2.5t10 -6.5t7 -10t2.5 -12v-324q0 -13 -9.5 -22t-22.5 -9zM206 319q0 4 -1 7.5t-2.5 6t-4 4t-5.5 1.5h-53q-2 0 -3.5 -0.5t-2.5 -1.5l-4 -4q-1 -1 -2 -4v-4q-1 -3 -1 -5v-199q0 -4 1 -8t2.5 -6.5
t4 -4t5.5 -1.5h53q6 0 9.5 6t3.5 14v199zM895 319q0 4 -1 7.5t-2.5 6t-4 4t-5.5 1.5h-54q-3 0 -6 -2.5t-4.5 -7t-1.5 -9.5v-199q0 -8 3.5 -14t8.5 -6h54q6 0 9.5 6t3.5 14v199z" />
    <glyph glyph-name="uniE603" unicode="&#xe603;" 
d="M185 -1h-76q-10 0 -17.5 -7t-7.5 -17.5t7.5 -18t17.5 -7.5h76q5 0 9.5 2t8 5.5t5.5 8t2 9.5q0 11 -7.5 18t-17.5 7zM915 -1h-554q-5 0 -10 -2t-8 -5t-5 -8t-2 -10q0 -10 7 -17.5t18 -7.5h554q10 0 17.5 7.5t7.5 18t-7.5 17.5t-17.5 7zM185 327h-76q-10 0 -17.5 -7.5
t-7.5 -18t7.5 -18t17.5 -7.5h76q5 0 9.5 2t8 5.5t5.5 8t2 10.5q0 10 -7.5 17.5t-17.5 7.5zM915 327h-554q-11 0 -18 -7.5t-7 -18t7 -18t18 -7.5h554q10 0 17.5 7.5t7.5 18.5q0 5 -2 9.5t-5.5 8t-8 5.5t-9.5 2zM185 654h-76q-10 0 -17.5 -7.5t-7.5 -18t7.5 -17.5t17.5 -7h76
q10 0 17.5 7t7.5 18q0 7 -3.5 12.5t-9.5 9t-12 3.5zM361 604h554q7 0 12.5 3t9 9t3.5 13t-3.5 12.5t-9 9t-12.5 3.5h-554q-11 0 -18 -7.5t-7 -17.5q0 -20 19 -24q3 -1 6 -1z" />
    <glyph glyph-name="uniE604" unicode="&#xe604;" 
d="M902 275q10 -7 18.5 -9t17.5 4q4 4 6 9t2 10t-2 10t-6 9l-388 383q0 1 -1.5 2t-5.5 4t-8 5.5t-10.5 4.5t-13.5 2q-5 0 -10 -1t-8.5 -2.5t-7 -3.5t-5.5 -4t-4 -3.5t-3 -2.5v-1l-388 -383q-6 -5 -7.5 -12t0 -14t7.5 -12q9 -7 18 -4t18 12l26 26l56 53v-414q0 -22 11 -41
t30 -29.5t41 -10.5h144v245q0 8 3.5 16t9 14t14 9t16.5 3h79q11 0 21 -5.5t16 -15.5t6 -21v-245h144q34 0 58 23.5t24 57.5v361v51z" />
    <glyph glyph-name="uniE605" unicode="&#xe605;" 
d="M936 310l-387 382q-2 2 -5 4.5t-13 7.5t-20 5q-6 0 -11 -1t-8.5 -2.5t-7 -3.5t-5.5 -4l-4 -2q-2 -2 -2 -3l-1 -1l-387 -382q-8 -8 -8 -19t8 -19q14 -14 37 8l26 26l364 352l387 -381q25 -16 37 -5q5 5 7 12t0 14t-7 12zM797 328q-5 0 -9 -2t-6.5 -4.5t-4.5 -6.5t-2 -9v0
v-355q0 -12 -5.5 -22t-15.5 -15.5t-22 -5.5h-96v206q0 13 -4 25.5t-12 22.5t-18 17t-22.5 11.5t-25.5 4.5h-87q-34 0 -58 -24t-24 -57v-206h-96q-18 0 -30.5 12.5t-12.5 30.5v355q0 3 -1 6t-2 5t-3 4t-4.5 3.5t-5.5 2.5t-6 1q-9 0 -15 -6.5t-6 -15.5v-360q0 -33 24 -57
t58 -24h143v244q0 12 6 22t16 15.5t22 5.5h78q17 0 30 -12.5t13 -30.5v-244h143q23 0 41.5 11t29.5 29.5t11 40.5v360q0 6 -3 11t-7.5 8t-10.5 3z" />
    <glyph glyph-name="uniE606" unicode="&#xe606;" 
d="M941 375q0 13 -2 26.5t-6 25.5v1l-1 3q-1 1 -1 2l-72 180q-10 28 -34.5 44.5t-56.5 16.5h-508q-31 0 -54.5 -16t-32.5 -43l-78 -183q-1 -2 -1 -5q-3 -8 -5 -17t-3 -18t-1 -18q0 -17 3.5 -34.5t10.5 -33t17 -29.5t22 -26v-270q0 -21 11 -39.5t29 -29t40 -10.5l580 1
q33 0 56 23t23 56v260q30 24 47 59t17 74zM798 -36h-580q-8 0 -13 5t-5 12v233q8 -3 17 -4.5t18.5 -2.5t19.5 -1q79 0 130 61q50 -60 128 -61q79 1 129 61q50 -61 129 -61q24 1 44 6v-230q0 -7 -5 -12.5t-12 -5.5zM823 280q-21 -12 -52 -12q-60 0 -91 52q-4 8 -9 13
q-4 5 -11.5 8.5t-17.5 3.5q-9 0 -17 -3.5t-13 -9.5q-4 -4 -8 -12q-15 -24 -39 -38t-52 -14t-52 14t-39 38q-4 7 -7 11q-11 13 -30.5 13t-29.5 -11q-2 -3 -4 -5.5t-2.5 -4.5t-1.5 -4q-32 -51 -92 -51q-10 0 -19 1t-17 3.5t-15 6.5v0q-17 9 -30 24t-20 33t-7 38q0 6 0.5 12
t2 12t3.5 11q0 2 1 3l76 181q7 19 30 19h508q26 -2 33 -20l71 -179q1 0 1 -1v-2q6 -17 6 -35q0 -30 -15 -55.5t-41 -39.5z" />
    <glyph glyph-name="uniE607" unicode="&#xe607;" 
d="M320 619h191v-191h-191v191zM513 428h191v-191h-191v191zM319 236h191v-191h-191v191z" />
    <glyph glyph-name="uniE608" unicode="&#xe608;" 
d="M320 -119q-5 0 -10.5 1.5t-9.5 4.5q-14 7 -19 21t0 29l96 284h-95q-22 0 -34.5 18t-4.5 38l153 415q5 12 15.5 19.5t23.5 7.5h307q17 0 29.5 -12.5t12.5 -29.5q0 -6 -2 -12.5t-6 -11.5l-156 -228h76q5 0 9.5 -1t9 -3.5t8 -5t6.5 -6.5t5 -8q3 -8 3.5 -16t-2 -15.5
t-7.5 -13.5l-376 -460q-12 -15 -32 -15z" />
    <glyph glyph-name="uniE609" unicode="&#xe609;" 
d="M708 197zM375.5 309q14.5 -8 30.5 -8q26 0 43 17q8 8 12 18.5t4 22.5q0 26 -17 43q-8 8 -19 12.5t-24 4.5q-3 0 -6 -1h-6q-3 -1 -5.5 -1.5t-5 -1.5t-4.5 -3l-6 -2l-4 -4l-4 -4q-17 -16 -17 -41q0 -8 2 -15.5t5 -14.5q7 -14 21.5 -22zM512 684q-63 0 -121 -19.5
t-105.5 -55t-83 -82.5t-54.5 -105.5t-19 -121.5q0 -104 51 -192t139.5 -139.5t192.5 -51.5t192.5 51.5t139.5 139.5t51 192.5t-51 192.5t-139.5 139.5t-192.5 51.5zM331 458q-11 16 -11 37q0 32 23.5 54t61.5 22q20 0 35.5 -5.5t27.5 -16.5q23 -23 23 -55q0 -10 -2.5 -19
t-7.5 -17l-5 -6l-6 -4q-2 -3 -5.5 -5t-7.5 -4l-8 -4q26 -9 40 -28q7 -10 10.5 -22t3.5 -25q0 -38 -26.5 -64t-70.5 -26q-9 0 -17 1t-15.5 3.5t-14 5.5t-12.5 7t-12 9q-26 26 -26 65q0 29 14 48t40 26q-21 8 -32 23zM489 41q-3 -5 -5 -7q-70 30 -89 91q-13 -58 -89 -94
q-2 3 -5 6.5t-7 9.5q-5 6 -8 10q86 35 91 105h-85v27h88q1 20 1 56h30l-1 -56h89v-27h-89q14 -77 94 -103q-6 -4 -15 -18zM543 458q-11 16 -11 37q0 32 23 54q12 11 27.5 16.5t34.5 5.5t35 -5.5t28 -16.5q23 -23 23 -55q0 -21 -11 -36q-5 -7 -13 -13t-18 -10q13 -4 23 -11
t17 -17t10.5 -22t3.5 -25q0 -38 -27 -64q-13 -13 -30.5 -19.5t-39.5 -6.5q-9 0 -17 1t-15.5 3.5t-14 5.5t-12.5 7t-12 9q-13 13 -20 29.5t-7 35.5q0 14 4 26t11 22t17 16.5t23 9.5q-21 8 -32 23zM566 30h-25v107q-9 -14 -19 -27l-6 36q29 43 44 100l26 -7q-4 -14 -9 -27.5
t-11 -26.5v-155zM730 38q-24 0 -40.5 0.5t-25.5 0.5q-37 2 -54 28q-3 -9 -8.5 -18t-13.5 -19q-13 12 -20 18q29 26 27 85l26 -1q-1 -17 -3 -32q5 -14 12.5 -23t16.5 -12v86h-53v84h126v-84h-47v-30h56v-24h-56v-36h65q-4 -8 -8 -23zM406 450q21 0 34 13q6 6 9.5 14t3.5 17
q0 20 -13 33q-5 5 -10 7.5t-11 4t-13 1.5q-21 0 -34 -13t-13 -31q0 -20 13 -33q6 -7 15 -10t19 -3zM587 309q5 -3 10 -4.5t10.5 -2.5t10.5 -1q26 0 42 17q9 8 13 18.5t4 22.5q0 26 -17 43q-6 6 -12.5 9.5t-14 5.5t-16.5 2q-13 0 -23.5 -4t-18.5 -13q-16 -16 -16 -41
q0 -8 1.5 -15.5t5.5 -14.5q7 -14 21 -22zM618 450q10 0 18.5 3t15.5 10q13 12 13 31q0 20 -14 33q-2 2 -4.5 4t-5 3.5t-5.5 2.5l-6 2q-3 1 -6 1h-6q-21 0 -34.5 -13t-13.5 -31q0 -20 14 -33q6 -7 14.5 -10t19.5 -3zM620 212h74v-37h-74v37z" />
    <glyph glyph-name="uniE60A" unicode="&#xe60a;" 
d="M289 -160h-4q-101 23 -142 106q-14 30 -19 67t0.5 74.5t20.5 71.5q23 51 90.5 142.5t104.5 135.5t63 73q5 6 12.5 6.5t13.5 -4.5t6.5 -13t-4.5 -13q-4 -5 -12.5 -14.5t-30 -35t-43 -52t-48 -61t-48 -65t-41 -61.5t-29.5 -53q-11 -25 -17 -53.5t-3 -63.5t18 -65
q33 -67 116 -86q8 -1 12 -7.5t2 -14.5q-1 -6 -6 -10t-12 -4zM735 -160h-446q-7 0 -12.5 5.5t-5.5 12.5q0 5 2.5 9.5t6.5 7t9 2.5h446q3 0 6.5 -1.5t6 -4t4 -6t1.5 -7.5q0 -7 -5.5 -12.5t-12.5 -5.5zM607 479h-190q-3 0 -6 1t-5.5 3t-4 4t-2.5 5t-1 6q0 8 5.5 13t13.5 5h190
q8 0 13.5 -5t5.5 -13t-5.5 -13.5t-13.5 -5.5zM735 -160q-15 0 -19 14q-1 5 0.5 10t5.5 8t8 4q42 10 71.5 31.5t45.5 54.5q15 30 18 65t-3 63.5t-17 52.5q-14 31 -45.5 78.5t-62.5 88.5t-68.5 86.5t-52 62.5t-23.5 27q-5 5 -4.5 13t6.5 13t13.5 4.5t12.5 -6.5
q25 -29 62.5 -73t105 -135.5t90.5 -143.5q23 -50 23.5 -108t-22.5 -104q-40 -83 -141 -106h-2h-2zM628 555h-224q-11 0 -16 10l-81 144q-3 4 -3 9t3 9q5 9 16 9h378q11 0 16 -9t1 -18l-74 -144q-6 -9 -16 -10zM415 592h201l55 107h-317zM514 210q-11 0 -16 9l-60 97
q-4 6 -2.5 13.5t8 11.5t14 2.5t11.5 -8.5l60 -97q2 -3 2.5 -6.5t0 -7t-2.5 -6.5t-6 -5q-4 -3 -9 -3zM617 203h-178q-8 0 -13 5t-5 13t5 13.5t13 5.5h178q4 0 7.5 -1.5t6 -4t4 -6t1.5 -7.5q0 -8 -5.5 -13t-13.5 -5zM617 118h-178q-8 0 -13 5.5t-5 13.5q0 5 2.5 9t6.5 6.5
t9 2.5h178q8 0 13.5 -5t5.5 -13t-5.5 -13.5t-13.5 -5.5zM528 11q-5 0 -9.5 2.5t-6.5 7t-2 9.5v191q0 4 0.5 6.5t2.5 5t4 4t5 2.5t6 1q5 0 9.5 -2.5t7 -6.5t2.5 -10v-191q0 -3 -1 -5t-2 -4.5t-3 -4t-4 -2.5l-4 -2q-2 -1 -5 -1zM536 210q-5 0 -10 3q-2 1 -4 3.5t-3 5t-1.5 5.5
t0.5 6t2 5l60 97q4 7 11.5 8.5t14 -2.5t8.5 -11.5t-2 -13.5l-60 -97q-2 -2 -3.5 -4t-3.5 -3t-4.5 -1.5t-4.5 -0.5z" />
    <glyph glyph-name="uniE60B" unicode="&#xe60b;" 
d="M321 746l-64 -63l381 -384l-384 -380l63 -64l449 444z" />
    <glyph glyph-name="uniE60C" unicode="&#xe60c;" 
d="M873 541q-4 5 -10 8.5t-13 3t-13 -4.5q-8 -5 -10.5 -15.5t3.5 -19.5q14 -22 24.5 -45.5t18 -48t11 -50t3.5 -50.5q0 -48 -12 -93.5t-36 -86.5t-57 -75q-51 -50 -116.5 -77.5t-137.5 -27.5t-138 27.5t-116.5 78t-78 116.5t-27.5 138q0 106 58 194q5 9 3 19.5t-11 16.5
t-19.5 3.5t-15.5 -11.5q-66 -101 -66 -222q0 -84 32 -160q31 -74 88 -131t131 -88q76 -32 160 -32q41 0 81 8t78 24q37 16 70 38t61 50.5t50 61t38 69.5q32 76 32 160q0 120 -65 222zM821 596q0 3 -0.5 5t-1.5 4t-2.5 4t-3.5 4v0v1q-58 55 -131.5 85t-153.5 30
q-40 0 -79 -7.5t-75.5 -22t-69.5 -36.5t-62 -49q0 -1 -1 -1.5t-2.5 -2.5t-2.5 -4t-2 -5.5t0 -6.5l8 -17q58 -56 131.5 -86t154 -30t154 30t130.5 85q1 1 2.5 3t4 7t2.5 10zM242 613zM757 595q-100 -82 -229.5 -82t-229.5 82q100 83 229.5 83t229.5 -83zM661 233
q11 0 18.5 7.5t7.5 18t-7.5 18t-18.5 7.5h-73l87 81q8 7 8.5 17.5t-7 18.5t-18 8.5t-18.5 -7.5l-111 -104l-110 104q-8 8 -18.5 7.5t-18 -8t-7 -18.5t8.5 -18l85 -81h-73q-5 0 -10 -2t-8.5 -5.5t-5.5 -8.5t-2 -10q0 -10 7.5 -17.5t18.5 -7.5h106v-61h-106q-11 0 -18.5 -7.5
t-7.5 -18.5q0 -5 2 -9.5t5.5 -8t8.5 -5.5t10 -2h106v-57q0 -5 2 -10t5.5 -8.5t8 -5.5t10.5 -2q10 0 17.5 7.5t7.5 18.5v57h108q4 0 8 1t7 3.5t5.5 5.5t4 7t1.5 8q0 6 -2 10.5t-5.5 8t-8.5 5.5t-10 2h-108v61h108z" />
    <glyph glyph-name="uniE60D" unicode="&#xe60d;" 
d="M810 586q-48 49 -108.5 79t-125 39.5t-129 0t-125 -39.5t-108.5 -79q-81 -81 -110 -189.5t0 -217t110 -189.5t189.5 -110t217 0t189.5 110t110 189.5t0 217t-110 189.5zM767.5 32.5q-69.5 -69.5 -162.5 -94t-186 0t-162.5 94t-94 162.5t0 186t94 162.5t162.5 94t186 0
t162.5 -94t94 -162.5t0 -186t-94 -162.5zM721 279h-206v227q0 12 -8 20t-19 8q-8 0 -14 -3.5t-10 -10t-4 -14.5v-235q0 -2 0.5 -4.5t1.5 -8t3.5 -11t7.5 -10.5q12 -13 35 -13h213q12 0 20 8t8 19q0 7 -3.5 13.5t-10 10t-14.5 4.5z" />
    <glyph glyph-name="uniE60E" unicode="&#xe60e;" 
d="M735 138h-189v139h116q6 0 11 3t7.5 8t2.5 11q0 3 -1 6.5t-3 6t-4.5 4.5t-5.5 3t-7 1h-116v142h146q8 0 14 6t6 15t-6 15.5t-14 6.5h-344q-8 0 -14.5 -6.5t-6.5 -15.5q0 -4 2 -8t4.5 -7t6.5 -4.5t8 -1.5h156v-324h-91q0 1 1 2v1v176q0 9 -6.5 15.5t-15 6.5t-14.5 -6.5
t-6 -15.5v-176v-3h-75q-8 0 -14.5 -6t-6.5 -15t6.5 -15.5t14.5 -6.5h438q9 0 15 6.5t6 15.5t-6 15t-15 6zM511 736q-89 0 -169.5 -34.5t-139 -93t-93 -139.5t-34.5 -169t34.5 -169t93 -139.5t139 -93t169 -34.5t169.5 34.5t139 93t93 139.5t35 169q0 51 -11.5 100t-33 91.5
t-51.5 80.5t-68 68t-81 51.5t-91.5 33t-99.5 11.5zM511 -79q-103 0 -190.5 50.5t-138 138t-50.5 190.5t50.5 190.5t138 138t190.5 50.5t190 -50.5t138 -138t51 -190.5q0 -77 -30 -147t-81 -121t-121 -81t-147 -30z" />
    <glyph glyph-name="uniE60F" unicode="&#xe60f;" 
d="M697 519q-26 0 -45 -18l-71 -72l-181 27q-16 3 -30 -7l-19 -14q-12 -9 -11 -23t13 -21l121 -67l1 -1l-56 -55l-86 4q-12 0 -21 -9l-10 -10q-5 -4 -6.5 -9.5t-0.5 -11.5q2 -12 14 -18l100 -46l47 -101q2 -5 6.5 -8.5t10.5 -4.5q1 0 2 -0.5t2 -0.5q3 0 6.5 1t6 2.5t4.5 3.5
l11 11q3 3 5 6.5t2.5 7.5t0.5 8l-4 83l56 57l1 -1l68 -121q6 -12 20 -13h2q13 0 21 10l14 20q10 13 8 29l-28 184l71 70q18 19 18 45t-18.5 44.5t-44.5 18.5zM383 415l8 6h4l155 -23l-52 -51q-2 5 -7 7zM663 149l-6 -8l-60 108l-4 4q-2 2 -5 3l52 53l24 -157zM717 436
l-233 -235q-9 -7 -10 -11l-1 -5l4 -80l-38 84q-3 5 -9 8l-84 39l80 -4q1 0 3 0.5t5 1.5t5 3l238 239q8 8 20 8t20 -8t8 -20t-8 -20zM528 736q-88 0 -168 -34t-138 -92t-92 -138t-34 -167q0 -117 58 -216.5t157 -157.5t216.5 -58t217 58t157 157.5t57.5 216.5t-58 216.5
t-157 157t-216 57.5zM528 -71q-102 0 -189 50t-137.5 137t-50.5 189t50.5 188.5t137.5 137t189 50.5q76 0 145.5 -30t120 -80.5t80.5 -120t30 -145.5q0 -102 -50.5 -189t-137 -137t-188.5 -50z" />
    <glyph glyph-name="uniE610" unicode="&#xe610;" 
d="M576 303q11 0 19 7.5t8 18.5q0 8 -4 14t-10 9.5t-13 3.5q-11 0 -19 -8t-8 -19t8 -18.5t19 -7.5zM701 414q-1 10 -5 19t-10.5 16.5t-14.5 13t-17.5 8.5t-19.5 3h-3q-7 38 -37 63.5t-69 25.5q-20 0 -38 -7t-32 -19t-24 -28.5t-13 -35.5q-16 0 -30.5 -8t-23.5 -21.5
t-11 -29.5l-34 -271q-2 -15 2.5 -28.5t14.5 -24.5q20 -23 50 -23h283q30 0 50 22.5t17 53.5zM524.5 518q20.5 0 37 -12.5t23.5 -31.5h-120q6 19 22.5 31.5t37 12.5zM685 120q-3 -4 -7.5 -6t-8.5 -2h-283q-10 0 -16.5 7.5t-5.5 17.5l34 271q1 6 4 10.5t8 7t11 2.5h213
q6 0 11 -2.5t8 -7t4 -10.5l34 -271q0 -10 -6 -17zM475 303q11 0 19 7.5t8 18.5t-8 19t-19 8q-7 0 -13 -3.5t-10 -9.5t-4 -14q0 -11 8 -18.5t19 -7.5zM584 279q-6 0 -11 -3t-8 -8t-3 -11q0 -28 -9.5 -40t-25.5 -12q-3 0 -6 0.5t-7.5 2t-8.5 5.5t-7.5 9.5t-5.5 14.5t-2 20h-1
q0 9 -6.5 15.5t-15.5 6.5q-2 0 -4.5 -0.5t-4 -1.5t-3.5 -2t-3.5 -2.5t-2.5 -3.5l-2 -4q-1 -2 -1.5 -4t-0.5 -4h-1q0 -43 23.5 -69.5t60.5 -26.5q32 0 55.5 22t23.5 74q-1 9 -7.5 15.5t-15.5 6.5zM527.5 735q-116.5 0 -216 -57.5t-157 -157t-57.5 -216t57.5 -215.5t157 -157
t216.5 -58q87 0 166.5 34.5t137.5 92t92 137t34 167.5q0 116 -57.5 215.5t-157 157t-216 57.5zM527.5 -70q-101.5 0 -188 50t-137 136.5t-50.5 188.5q0 76 30 145.5t80 119.5t119.5 80t146.5 30q61 0 118 -19t103 -54t81 -81t54 -103t19 -118q0 -102 -50.5 -188.5
t-137 -136.5t-188 -50z" />
    <glyph glyph-name="uniE611" unicode="&#xe611;" 
d="M729 366l-166 41l36 111l1 6q1 15 -9 25q-5 5 -11.5 7.5t-13.5 2.5q-17 0 -26 -12l-214 -199l-4 -5q-10 -17 -1 -34q9 -16 27 -18l165 -27l-71 -203l-1 -3q-1 -5 -0.5 -10t2.5 -9.5t5 -8.5q11 -12 27 -12q18 0 28 14l248 279l3 4q9 17 0 34q-4 7 -10.5 11.5t-14.5 5.5z
M511 112l53 153l1 4q3 15 -7 27q-9 12 -24 13l-153 25l155 145l-24 -75l-1 -6q0 -14 9 -24q9 -9 21 -11l158 -39zM528 739q-88 0 -168.5 -34.5t-139 -93t-93 -139t-34.5 -168.5t34.5 -169t93 -139t139 -92.5t168.5 -34.5t169 34.5t139 92.5t92.5 139t34.5 169
q0 59 -15.5 115.5t-43.5 104t-68.5 87.5t-88 68.5t-104 44t-115.5 15.5zM528 -75q-103 0 -190 50.5t-138 138t-51 190.5t51 190t138 138t190 51t190.5 -51t138 -138t50.5 -190t-50.5 -190.5t-138 -138t-190.5 -50.5z" />
    <glyph glyph-name="uniE612" unicode="&#xe612;" 
d="M512 717q-113 0 -209.5 -55.5t-152 -152t-55.5 -209.5t55.5 -209.5t152 -152t209.5 -55.5t209.5 55.5t152 152t55.5 209.5t-55.5 209.5t-152 152t-209.5 55.5zM685 273l1 1q9 -1 -4 -17q-16 -20 -67 -52q-7 -4 -8 -27.5t0 -48.5t-7.5 -46.5t-28.5 -22.5q-9 6 -24.5 30.5
t-26.5 50.5t-12 37q0 1 0.5 3.5t1.5 4.5l2 6q1 2 2.5 5.5t2.5 5.5t3 5q18 36 18 58q0 102 -146 87q-19 -6 -32 5t-18 31.5t-7 33t-2 18.5q0 2 7.5 7.5t35 12.5t68.5 8q3 0 9.5 -9t18 -17.5t42 -11.5t81.5 8q26 6 29 25q1 2 1 4t0.5 4t0.5 4v4q0 2 1 4q9 -11 20 -14
q3 -4 12 -5t16.5 -7t12.5 -24q0 -1 1 -3q2 -8 7 -12.5t26 -13.5q-1 -1 -9 -3.5t-10 -4.5q-20 -21 -28 -30.5t-14.5 -20.5t-6.5 -21q0 -25 31 -52zM631 529q1 20 -1 33.5t-8.5 25.5t-19.5 21q-22 16 -50 3q-39 -20 -54 -6q-15 15 -18.5 24t3 11.5t18 2.5t27.5 -1q6 -1 8.5 -1
t8 -0.5t8.5 -0.5h8h9q3 0 7 0.5t7.5 1t7.5 0.5q4 1 8 4q65 -17 119 -55q-20 4 -34 1t-21.5 -7t-12.5 -12t-7.5 -15t-5.5 -16t-7 -14zM512 -58q-97 0 -179.5 48t-130.5 130.5t-48 179.5q0 123 74.5 219t190.5 127v-2v-3q-2 -19 5 -36t18.5 -29.5t26.5 -20.5q44 -24 100 -1
q2 -8 2.5 -9t1 -6t0 -7t-1.5 -13t-2 -24q-8 -1 -18.5 -5t-16.5 -5.5t-14.5 -1t-17 8t-17.5 21.5q-10 15 -40 13q-169 -18 -171 -85q0 -17 3.5 -35t11.5 -38.5t21 -36.5t34 -26.5t48 -10.5l18 5q62 10 68 -27l1 -6q-1 -10 -12 -31q-17 -36 -17 -58q0 -28 33 -93
q45 -82 84 -83q16 1 28.5 3.5t21.5 8t15.5 9.5t11 14.5t7 16.5t4.5 21.5t3 23.5t2.5 28.5t2.5 31.5q26 12 71 57q24 25 23 49q-1 17 -10.5 30t-16.5 18.5t-4.5 16t20.5 27.5q2 2 7.5 6.5t8 7t6.5 7t6 7t4.5 7t3 8.5t0.5 9t-1 11q0 2 -1 5.5t-1 5t-0.5 4t-1.5 4t-2.5 3.5
t-3.5 3t-4.5 3t-6.5 3.5t-9 3.5t-12 5q-2 7 -5.5 13t-7 9.5t-7.5 6t-8.5 4t-8 3t-7.5 4.5t-7 6q1 3 0 9t0 9.5t4 7t13 3.5t26 -4h11q5 0 11 1t12.5 3t13.5 5q91 -102 91 -239q0 -144 -100 -248q-98 -102 -239 -109q-10 -1 -19 -1zM512 -58z" />
    <glyph glyph-name="uniE613" unicode="&#xe613;" 
d="M513.5 -164q93.5 0 179 36.5t147 98.5t98 147.5t36.5 179t-36.5 179t-98 147t-147 98t-179.5 36.5q-75 0 -145 -23t-127 -66t-99.5 -99.5t-66 -127t-23.5 -145.5q0 -93 36.5 -178.5t98.5 -147.5t147.5 -98.5t179 -36.5zM513 720q175 0 299 -124t124 -299
q0 -114 -56.5 -211.5t-154 -154t-212 -56.5t-212 56.5t-154 154t-56.5 212t56.5 212t154 154t211.5 56.5zM375 34q5 -6 13 -6t14 6l250 250q3 3 4.5 6.5t1.5 7.5q0 8 -6 13l-250 250q-5 6 -13 6t-14 -6q-4 -4 -5 -8.5t0 -9.5t5 -9l236 -236l-236 -237q-4 -4 -5.5 -9t0 -10
t5.5 -8z" />
    <glyph glyph-name="uniE614" unicode="&#xe614;" horiz-adv-x="4304" 
d="M570 345h427v114h-440v44v196h394v113h-902v-113h394v-196v-44h-439v-114h426q-30 -128 -135 -239.5t-295 -218.5l56 -99q31 18 59.5 35t62 39t63 44.5t60.5 48.5t58.5 54.5t53 59t48 65.5t39.5 71q37 -78 97 -148q119 -140 348 -269l55 99q-127 71 -215 144
t-141.5 150.5t-73.5 163.5zM1326 752q-18 17 -41.5 29.5t-46 17.5t-46.5 8.5t-43.5 3t-36.5 -0.5h-15v-112h16q106 2 135 -27q4 -3 7 -7t7 -16.5t4 -29.5v-39l-174 -104l57 -96l118 70q0 -19 -0.5 -41.5t-0.5 -40.5v-43l-174 -105l57 -96l117 70v-96q0 -19 -10 -46t-23 -44
q-15 -18 -35 -37t-37 -32t-35 -25.5t-25 -16.5t-10 -6l55 -98q3 2 6.5 4t13.5 8t20.5 13.5t24 17t27.5 21t28 24.5t28.5 28t26.5 30q17 21 30 48.5t20 56.5t7 54v65v61q0 24 1 66q0 245 -1 331q0 41 -13.5 74t-38.5 58zM1548 536h112v91h239v-91h112v91h108v112h-108v73
h-112v-73h-239v73h-112v-73h-106v-112h106v-91zM2119 392v70h-677v-113v-394q0 -69 49 -118t117 -49h344q34 0 65 13.5t53.5 35.5t35.5 53t13 65v437zM2007 349v-167h-170v167h170zM1724 349v-167h-170v167h170zM1554 -45v114h170v-169h-115q-11 0 -21 4.5t-17.5 12
t-12 17.5t-4.5 21zM1952 -100h-115v169h170v-114q0 -9 -3 -17t-8 -15t-11.5 -12t-15 -8t-17.5 -3zM3019 -5v190h-113v-82h-150v182h263v109h-263v102h263v109h-619v-109h243v-102h-243v-109h243v-182h-243v-109h619v1zM3201 812h-982v-112v-735q0 -73 52 -125t125 -52h4h610
h14q73 0 125 52t52 125v735v112zM3089 -35q0 -17 -9 -32t-24 -24t-32 -9h-14h-610h-4q-27 0 -46 19t-19 46v735h758v-735zM3622 591zM3569 753q-17 17 -40 29t-44.5 18t-46.5 9v3v-3q-14 2 -28.5 2.5t-28.5 0.5h-3h-2h-40h-10v-1024h112v238q80 55 126 114q16 21 29.5 48.5
t20.5 56.5t7 54v247q0 30 1 45q-1 3 -1 31q0 27 -6 51t-17.5 44t-28.5 36zM3491 673q4 -4 7 -8t7 -16.5t4 -28.5v-13v-9v-5v-2v-45v-41l-71 -42v232q11 -2 20.5 -4.5t18 -7t14.5 -10.5zM3476 210q-16 -20 -38 -41v163l71 42v-41v-34q0 -8 -2 -17t-5 -19t-7 -19.5t-9 -18.5
t-10 -15zM3627 -58l108 -32l114 387l-107 32zM4189 329l-107 -32l114 -387l108 32zM3708 805h551v-112h-551v112zM4302 423v112h-638v-112h248v-320v-154q1 -20 -9 -37.5t-28 -32.5l51 -91q47 28 71.5 70.5t23.5 93.5v471h281z" />
  </font>
</defs>
</svg>
